# Blender 3.6.8
# www.blender.org
mtllib johnbirdflap.mtl
o Sphere
v 0.250000 0.250000 0.953553
v 0.353553 0.353553 0.600000
v 0.250000 0.250000 0.246447
v 0.353553 0.000000 0.953553
v 0.500000 0.000000 0.600000
v 0.353553 0.000000 0.246447
v 0.250000 -0.250000 0.953553
v 0.353553 -0.353553 0.600000
v 0.250000 -0.250000 0.246447
v 0.000000 -0.353553 0.953553
v 0.000000 -0.500000 0.600000
v 0.000000 -0.353553 0.246447
v -0.250000 -0.250000 0.953553
v -0.353553 -0.353553 0.600000
v -0.250000 -0.250000 0.246447
v 0.000000 0.000000 0.100000
v -0.353553 0.000000 0.953553
v -0.500000 0.000000 0.600000
v -0.353553 0.000000 0.246447
v -0.250000 0.250000 0.953553
v -0.353553 0.353553 0.600000
v -0.250000 0.250000 0.246447
v 0.000000 0.000000 1.100000
v 0.000000 0.353553 0.953553
v 0.000000 0.500000 0.600000
v 0.000000 0.353553 0.246447
v -0.400000 -0.200000 0.500000
v 0.300000 0.000000 0.000000
v 0.000000 -0.370000 0.720000
v -0.400000 -0.200000 0.600000
v 0.300000 -0.370000 0.600000
v 0.000000 0.300000 0.000000
v -0.000000 -0.370000 0.480000
v -0.400000 0.200000 0.500000
v -0.300000 -0.370000 0.600000
v 0.000000 -0.570000 0.600000
v -0.400000 0.200000 0.600000
v 0.000000 -0.300000 0.000000
v 0.400000 -0.200000 0.500000
v -0.300000 0.000000 0.000000
v 0.000000 0.000000 0.200000
v 0.400000 -0.200000 0.600000
v 0.400000 0.200000 0.500000
v 0.400000 0.200000 0.600000
v 0.700000 -0.200000 0.600000
v 0.700000 -0.200000 0.700000
v 0.700000 0.200000 0.600000
v 0.700000 0.200000 0.700000
v -0.700000 0.200000 0.700000
v -0.700000 0.200000 0.600000
v -0.700000 -0.200000 0.700000
v -0.700000 -0.200000 0.600000
vn 0.1566 0.3780 -0.9125
vn 0.3574 0.8629 0.3574
vn 0.3574 0.8629 -0.3574
vn 0.1566 0.3780 0.9125
vn 0.3780 0.1566 -0.9125
vn 0.8629 0.3574 0.3574
vn 0.8629 0.3574 -0.3574
vn 0.3780 0.1566 0.9125
vn 0.3780 -0.1566 -0.9125
vn 0.8629 -0.3574 0.3574
vn 0.8629 -0.3574 -0.3574
vn 0.3780 -0.1566 0.9125
vn 0.1566 -0.3780 -0.9125
vn 0.3574 -0.8629 0.3574
vn 0.3574 -0.8629 -0.3574
vn 0.1566 -0.3780 0.9125
vn -0.1566 -0.3780 0.9125
vn -0.1566 -0.3780 -0.9125
vn -0.3574 -0.8629 0.3574
vn -0.3574 -0.8629 -0.3574
vn -0.8629 -0.3574 -0.3574
vn -0.3780 -0.1566 0.9125
vn -0.3780 -0.1566 -0.9125
vn -0.8629 -0.3574 0.3574
vn -0.8629 0.3574 -0.3574
vn -0.3780 0.1566 0.9125
vn -0.3780 0.1566 -0.9125
vn -0.8629 0.3574 0.3574
vn -0.3574 0.8629 -0.3574
vn -0.1566 0.3780 0.9125
vn -0.1566 0.3780 -0.9125
vn -0.3574 0.8629 0.3574
vn 0.4851 0.4851 0.7276
vn 0.4851 -0.4851 0.7276
vn 0.3244 -0.4867 0.8111
vn 1.0000 -0.0000 -0.0000
vn -0.0000 1.0000 -0.0000
vn 0.3244 -0.4867 -0.8111
vn -0.0000 -1.0000 -0.0000
vn -0.3244 -0.4867 -0.8111
vn -1.0000 -0.0000 -0.0000
vn -0.3162 -0.0000 -0.9487
vn -0.3244 -0.4867 0.8111
vn -0.0000 -0.0000 -1.0000
vn -0.4851 -0.4851 0.7276
vn -0.3162 -0.0000 0.9487
vn -0.4851 0.4851 0.7276
vn 0.3162 -0.0000 -0.9487
vn 0.3162 -0.0000 0.9487
vt 0.343750 0.000000
vt 0.375000 0.125000
vt 0.312500 0.125000
vt 0.375000 0.250000
vt 0.312500 0.375000
vt 0.312500 0.250000
vt 0.375000 0.375000
vt 0.343750 0.500000
vt 0.281250 0.000000
vt 0.250000 0.125000
vt 0.250000 0.250000
vt 0.281250 0.500000
vt 0.250000 0.375000
vt 0.218750 0.000000
vt 0.187500 0.125000
vt 0.187500 0.250000
vt 0.218750 0.500000
vt 0.187500 0.375000
vt 0.156250 0.000000
vt 0.125000 0.125000
vt 0.125000 0.250000
vt 0.156250 0.500000
vt 0.125000 0.375000
vt 0.093750 0.500000
vt 0.062500 0.375000
vt 0.093750 0.000000
vt 0.062500 0.125000
vt 0.062500 0.250000
vt 0.000000 0.125000
vt 0.031250 0.500000
vt 0.000000 0.375000
vt 0.031250 0.000000
vt 0.000000 0.250000
vt 0.500000 0.250000
vt 0.437500 0.125000
vt 0.500000 0.125000
vt 0.500000 0.375000
vt 0.468750 0.500000
vt 0.437500 0.375000
vt 0.468750 0.000000
vt 0.437500 0.250000
vt 0.406250 0.500000
vt 0.406250 0.000000
vt 0.625000 0.245000
vt 0.625000 0.125000
vt 0.745000 0.125000
vt 0.625000 0.005000
vt 0.625000 0.495000
vt 0.625000 0.375000
vt 0.745000 0.375000
vt 0.812500 0.500000
vt 0.687500 0.625000
vt 0.687500 0.500000
vt 0.812500 0.750000
vt 0.687500 0.750000
vt 0.625000 0.255000
vt 0.187500 0.500000
vt 0.312500 0.625000
vt 0.187500 0.625000
vt 0.875000 0.495000
vt 0.875000 0.255000
vt 0.755000 0.375000
vt 0.505000 0.375000
vt 0.687500 0.875000
vt 0.812500 0.875000
vt 0.687500 1.000000
vt 0.875000 0.005000
vt 0.875000 0.245000
vt 0.995000 0.125000
vt 0.505000 0.125000
vt 0.187500 0.750000
vt 0.312500 0.750000
vt 0.187500 0.875000
vt 0.312500 0.875000
vt 0.187500 1.000000
vt 0.062500 0.875000
vt 0.062500 0.750000
vt 0.437500 0.750000
vt 0.562500 0.875000
vt 0.562500 0.750000
vt 0.937500 0.750000
vt 0.812500 0.625000
vt 0.312500 0.500000
vt 0.995000 0.375000
vt 0.812500 1.000000
vt 0.755000 0.125000
vt 0.312500 1.000000
vt 0.437500 0.875000
vt 0.937500 0.875000
s 0
usemtl Material.001
f 16/1/1 26/2/1 3/3/1
f 25/4/2 1/5/2 2/6/2
f 25/4/3 3/3/3 26/2/3
f 24/7/4 23/8/4 1/5/4
f 16/9/5 3/3/5 6/10/5
f 1/5/6 5/11/6 2/6/6
f 2/6/7 6/10/7 3/3/7
f 1/5/8 23/12/8 4/13/8
f 16/14/9 6/10/9 9/15/9
f 4/13/10 8/16/10 5/11/10
f 6/10/11 8/16/11 9/15/11
f 4/13/12 23/17/12 7/18/12
f 16/19/13 9/15/13 12/20/13
f 7/18/14 11/21/14 8/16/14
f 8/16/15 12/20/15 9/15/15
f 7/18/16 23/22/16 10/23/16
f 10/23/17 23/24/17 13/25/17
f 16/26/18 12/20/18 15/27/18
f 10/23/19 14/28/19 11/21/19
f 11/21/20 15/27/20 12/20/20
f 14/28/21 19/29/21 15/27/21
f 13/25/22 23/30/22 17/31/22
f 16/32/23 15/27/23 19/29/23
f 13/25/24 18/33/24 14/28/24
f 18/34/25 22/35/25 19/36/25
f 17/37/26 23/38/26 20/39/26
f 16/40/27 19/36/27 22/35/27
f 17/37/28 21/41/28 18/34/28
f 21/41/29 26/2/29 22/35/29
f 20/39/30 23/42/30 24/7/30
f 16/43/31 22/35/31 26/2/31
f 20/39/32 25/4/32 21/41/32
f 32/44/33 41/45/33 28/46/33
f 28/46/34 41/45/34 38/47/34
f 29/48/35 36/49/35 31/50/35
f 52/51/36 49/52/36 51/53/36
f 30/52/37 52/54/37 51/55/37
f 31/50/38 36/49/38 33/56/38
f 44/57/39 47/58/39 48/59/39
f 29/60/37 33/61/37 35/62/37
f 33/56/40 36/49/40 35/63/40
f 34/54/41 30/64/41 37/55/41
f 51/65/42 37/66/42 30/64/42
f 35/63/43 36/49/43 29/48/43
f 38/67/44 32/68/44 28/69/44
f 38/47/45 41/45/45 40/70/45
f 45/58/46 43/71/46 39/59/46
f 40/70/47 41/45/47 32/44/47
f 47/72/41 46/73/41 48/71/41
f 42/74/48 48/75/48 46/73/48
f 39/71/36 44/76/36 42/77/36
f 45/78/37 42/74/37 46/72/37
f 50/55/39 37/79/39 49/80/39
f 27/81/49 50/65/49 52/54/49
f 25/4/2 24/7/2 1/5/2
f 25/4/3 2/6/3 3/3/3
f 1/5/6 4/13/6 5/11/6
f 2/6/7 5/11/7 6/10/7
f 4/13/10 7/18/10 8/16/10
f 6/10/11 5/11/11 8/16/11
f 7/18/14 10/23/14 11/21/14
f 8/16/15 11/21/15 12/20/15
f 10/23/19 13/25/19 14/28/19
f 11/21/20 14/28/20 15/27/20
f 14/28/21 18/33/21 19/29/21
f 13/25/24 17/31/24 18/33/24
f 18/34/25 21/41/25 22/35/25
f 17/37/28 20/39/28 21/41/28
f 21/41/29 25/4/29 26/2/29
f 20/39/32 24/7/32 25/4/32
f 52/51/36 50/82/36 49/52/36
f 30/52/37 27/82/37 52/54/37
f 44/57/39 43/83/39 47/58/39
f 29/60/37 31/84/37 33/61/37
f 34/54/41 27/65/41 30/64/41
f 51/65/42 49/85/42 37/66/42
f 38/67/44 40/86/44 32/68/44
f 45/58/46 47/72/46 43/71/46
f 47/72/41 45/74/41 46/73/41
f 42/74/48 44/87/48 48/75/48
f 39/71/36 43/73/36 44/76/36
f 45/78/37 39/88/37 42/74/37
f 50/55/39 34/64/39 37/79/39
f 27/81/49 34/89/49 50/65/49
