# Blender 3.6.8
# www.blender.org
mtllib babytank.mtl
o Cube
v -1.500000 0.000000 1.500000
v -1.500000 1.000000 1.000000
v -1.500000 0.000000 -1.500000
v -1.500000 1.000000 -1.000000
v 1.500000 0.000000 1.500000
v 1.500000 1.000000 1.000000
v 1.500000 0.000000 -1.500000
v 1.500000 1.000000 -1.000000
v -0.900000 1.000000 0.900000
v -0.900000 1.900000 0.900000
v -0.900000 1.000000 -0.900000
v -0.900000 1.900000 -0.900000
v 0.900000 1.000000 0.900000
v 0.900000 1.900000 0.900000
v 0.900000 1.000000 -0.900000
v 0.900000 1.900000 -0.900000
v 0.318198 1.718198 1.950000
v -0.000000 1.850000 1.950000
v -0.000000 1.700000 0.450000
v -0.000000 1.700000 1.950000
v 0.212132 1.612132 0.450000
v 0.212132 1.612132 1.950000
v 0.300000 1.400000 0.450000
v 0.300000 1.400000 1.950000
v 0.212132 1.187868 0.450000
v 0.212132 1.187868 1.950000
v -0.000000 1.100000 0.450000
v -0.000000 1.100000 1.950000
v -0.212132 1.187868 0.450000
v -0.212132 1.187868 1.950000
v -0.300000 1.400000 0.450000
v -0.300000 1.400000 1.950000
v -0.212132 1.612132 0.450000
v -0.212132 1.612132 1.950000
v 0.450000 1.400000 1.950000
v 0.318198 1.081802 1.950000
v -0.000000 0.950000 1.950000
v -0.318198 1.081802 1.950000
v -0.450000 1.400000 1.950000
v -0.318198 1.718198 1.950000
v 0.318198 1.718198 2.650000
v -0.000000 1.850000 2.650000
v 0.450000 1.400000 2.650000
v 0.318198 1.081802 2.650000
v -0.000000 0.950000 2.650000
v -0.318198 1.081802 2.650000
v -0.450000 1.400000 2.650000
v -0.318198 1.718198 2.650000
vn -1.0000 -0.0000 -0.0000
vn -0.0000 0.4472 -0.8944
vn 1.0000 -0.0000 -0.0000
vn -0.0000 0.4472 0.8944
vn -0.0000 -1.0000 -0.0000
vn -0.0000 1.0000 -0.0000
vn -0.0000 -0.0000 -1.0000
vn -0.0000 -0.0000 1.0000
vn 0.3827 0.9239 -0.0000
vn 0.9239 0.3827 -0.0000
vn 0.9239 -0.3827 -0.0000
vn 0.3827 -0.9239 -0.0000
vn -0.3827 -0.9239 -0.0000
vn -0.9239 -0.3827 -0.0000
vn -0.9239 0.3827 -0.0000
vn -0.3827 0.9239 -0.0000
vt 0.328568 0.134695
vt 0.166068 0.297195
vt 0.166068 0.134695
vt 0.328568 0.297195
vt 0.166068 0.459695
vt 0.328568 0.459695
vt 0.166068 0.622195
vt 0.328568 0.622195
vt 0.166068 0.784695
vt 0.003568 0.622195
vt 0.003568 0.459695
vt 0.491068 0.459695
vt 0.996794 0.820932
vt 0.860294 0.684432
vt 0.996794 0.684432
vt 0.860294 0.820932
vt 0.723794 0.684432
vt 0.723794 0.820932
vt 0.587294 0.684432
vt 0.587294 0.820932
vt 0.450794 0.684432
vt 0.587294 0.547932
vt 0.723794 0.547932
vt 0.723794 0.957432
vt 0.937500 0.361875
vt 0.875000 0.440000
vt 0.875000 0.361875
vt 1.000000 0.361875
vt 0.937500 0.252500
vt 1.000000 0.252500
vt 0.687500 0.361875
vt 0.750000 0.440000
vt 0.687500 0.440000
vt 0.875000 0.252500
vt 0.500000 0.361875
vt 0.562500 0.440000
vt 0.500000 0.440000
vt 0.812500 0.252500
vt 0.812500 0.361875
vt 0.750000 0.361875
vt 0.750000 0.252500
vt 0.625000 0.361875
vt 0.562500 0.361875
vt 0.687500 0.252500
vt 0.812500 0.440000
vt 0.625000 0.252500
vt 0.937500 0.440000
vt 0.875000 0.502500
vt 0.812500 0.502500
vt 0.562500 0.252500
vt 0.625000 0.440000
vt 0.500000 0.252500
vt 0.959853 0.042647
vt 0.790147 0.042647
vt 0.790147 0.212353
vt 0.505000 0.127500
vt 0.625000 0.007500
vt 0.745000 0.127500
vt 0.500000 0.502500
vt 0.625000 0.502500
vt 0.562500 0.502500
vt 0.687500 0.502500
vt 1.000000 0.440000
vt 0.937500 0.502500
vt 0.750000 0.502500
vt 0.328568 0.784695
vt 0.491068 0.622195
vt 0.450794 0.820932
vt 0.587294 0.957432
vt 0.875000 0.247500
vt 0.959853 0.212353
vt 0.995000 0.127500
vt 0.875000 0.007500
vt 0.755000 0.127500
vt 0.709853 0.212353
vt 0.625000 0.247500
vt 0.540147 0.212353
vt 0.540147 0.042647
vt 0.709853 0.042647
vt 1.000000 0.502500
s 0
usemtl Material.001
f 2/1/1 3/2/1 1/3/1
f 4/4/2 7/5/2 3/2/2
f 8/6/3 5/7/3 7/5/3
f 6/8/4 1/9/4 5/7/4
f 7/5/5 1/10/5 3/11/5
f 4/12/6 6/8/6 8/6/6
f 10/13/1 11/14/1 9/15/1
f 12/16/7 15/17/7 11/14/7
f 16/18/3 13/19/3 15/17/3
f 14/20/8 9/21/8 13/19/8
f 15/17/5 9/22/5 11/23/5
f 12/24/6 14/20/6 16/18/6
f 22/25/7 35/26/7 24/27/7
f 20/28/9 21/29/9 19/30/9
f 30/31/7 37/32/7 38/33/7
f 22/25/10 23/34/10 21/29/10
f 20/35/7 40/36/7 18/37/7
f 24/27/11 25/38/11 23/34/11
f 26/39/7 37/32/7 28/40/7
f 26/39/12 27/41/12 25/38/12
f 32/42/7 40/36/7 34/43/7
f 28/40/13 29/44/13 27/41/13
f 24/27/7 36/45/7 26/39/7
f 30/31/14 31/46/14 29/44/14
f 20/28/7 17/47/7 22/25/7
f 36/45/11 43/48/11 44/49/11
f 32/42/15 33/50/15 31/46/15
f 32/42/7 38/33/7 39/51/7
f 34/43/16 19/52/16 33/50/16
f 25/53/7 29/54/7 33/55/7
f 47/56/8 45/57/8 43/58/8
f 40/36/16 42/59/16 18/37/16
f 38/33/14 47/60/14 39/51/14
f 17/47/10 43/48/10 35/26/10
f 39/51/15 48/61/15 40/36/15
f 37/32/13 46/62/13 38/33/13
f 18/63/9 41/64/9 17/47/9
f 36/45/12 45/65/12 37/32/12
f 2/1/1 4/4/1 3/2/1
f 4/4/2 8/6/2 7/5/2
f 8/6/3 6/8/3 5/7/3
f 6/8/4 2/66/4 1/9/4
f 7/5/5 5/7/5 1/10/5
f 4/12/6 2/67/6 6/8/6
f 10/13/1 12/16/1 11/14/1
f 12/16/7 16/18/7 15/17/7
f 16/18/3 14/20/3 13/19/3
f 14/20/8 10/68/8 9/21/8
f 15/17/5 13/19/5 9/22/5
f 12/24/6 10/69/6 14/20/6
f 22/25/7 17/47/7 35/26/7
f 20/28/9 22/25/9 21/29/9
f 30/31/7 28/40/7 37/32/7
f 22/25/10 24/27/10 23/34/10
f 20/35/7 34/43/7 40/36/7
f 24/27/11 26/39/11 25/38/11
f 26/39/7 36/45/7 37/32/7
f 26/39/12 28/40/12 27/41/12
f 32/42/7 39/51/7 40/36/7
f 28/40/13 30/31/13 29/44/13
f 24/27/7 35/26/7 36/45/7
f 30/31/14 32/42/14 31/46/14
f 20/28/7 18/63/7 17/47/7
f 36/45/11 35/26/11 43/48/11
f 32/42/15 34/43/15 33/50/15
f 32/42/7 30/31/7 38/33/7
f 34/43/16 20/35/16 19/52/16
f 33/55/7 19/70/7 21/71/7
f 21/71/7 23/72/7 25/53/7
f 25/53/7 27/73/7 29/54/7
f 29/54/7 31/74/7 33/55/7
f 33/55/7 21/71/7 25/53/7
f 43/58/8 41/75/8 42/76/8
f 42/76/8 48/77/8 47/56/8
f 47/56/8 46/78/8 45/57/8
f 45/57/8 44/79/8 43/58/8
f 43/58/8 42/76/8 47/56/8
f 40/36/16 48/61/16 42/59/16
f 38/33/14 46/62/14 47/60/14
f 17/47/10 41/64/10 43/48/10
f 39/51/15 47/60/15 48/61/15
f 37/32/13 45/65/13 46/62/13
f 18/63/9 42/80/9 41/64/9
f 36/45/12 44/49/12 45/65/12
