# Blender 3.6.8
# www.blender.org
mtllib draggy.mtl
o Cube
v -1.000000 0.200000 2.000000
v -1.000000 0.600000 2.500000
v -1.000000 0.200000 -2.000000
v -1.000000 1.600000 -2.500000
v 1.000000 0.200000 2.000000
v 1.000000 0.600000 2.500000
v 1.000000 0.200000 -2.000000
v 1.000000 1.600000 -2.500000
v 1.000000 0.300000 1.500000
v 1.200000 0.300000 1.500000
v 1.000000 0.087868 1.587868
v 1.200000 0.087868 1.587868
v 1.000000 0.000000 1.800000
v 1.200000 0.000000 1.800000
v 1.000000 0.087868 2.012132
v 1.200000 0.087868 2.012132
v 1.000000 0.300000 2.100000
v 1.200000 0.300000 2.100000
v 1.000000 0.512132 2.012132
v 1.200000 0.512132 2.012132
v 1.000000 0.600000 1.800000
v 1.200000 0.600000 1.800000
v 1.000000 0.512132 1.587868
v 1.200000 0.512132 1.587868
v -1.000000 0.300000 1.500000
v -1.200000 0.300000 1.500000
v -1.000000 0.512132 1.587868
v -1.200000 0.512132 1.587868
v -1.000000 0.600000 1.800000
v -1.200000 0.600000 1.800000
v -1.000000 0.512132 2.012132
v -1.200000 0.512132 2.012132
v -1.000000 0.300000 2.100000
v -1.200000 0.300000 2.100000
v -1.000000 0.087868 2.012132
v -1.200000 0.087868 2.012132
v -1.000000 -0.000000 1.800000
v -1.200000 -0.000000 1.800000
v -1.000000 0.087868 1.587868
v -1.200000 0.087868 1.587868
v 1.200000 0.700000 -2.700000
v 1.000000 0.700000 -2.700000
v 1.200000 1.194975 -2.494975
v 1.000000 1.194975 -2.494975
v 1.200000 1.400000 -2.000000
v 1.000000 1.400000 -2.000000
v 1.200000 1.194975 -1.505025
v 1.000000 1.194975 -1.505025
v 1.200000 0.700000 -1.300000
v 1.000000 0.700000 -1.300000
v 1.200000 0.205025 -1.505025
v 1.000000 0.205025 -1.505025
v 1.200000 0.000000 -2.000000
v 1.000000 0.000000 -2.000000
v 1.200000 0.205025 -2.494975
v 1.000000 0.205025 -2.494975
v -1.200000 0.700000 -2.700000
v -1.000000 0.700000 -2.700000
v -1.200000 0.205025 -2.494975
v -1.000000 0.205025 -2.494975
v -1.200000 -0.000000 -2.000000
v -1.000000 -0.000000 -2.000000
v -1.200000 0.205025 -1.505025
v -1.000000 0.205025 -1.505025
v -1.200000 0.700000 -1.300000
v -1.000000 0.700000 -1.300000
v -1.200000 1.194975 -1.505025
v -1.000000 1.194975 -1.505025
v -1.200000 1.400000 -2.000000
v -1.000000 1.400000 -2.000000
v -1.200000 1.194975 -2.494975
v -1.000000 1.194975 -2.494975
v 0.000000 0.550000 -1.900000
v 0.000000 0.400000 -3.000000
v 0.247487 0.652513 -1.900000
v 0.353553 0.546447 -3.000000
v 0.350000 0.900000 -1.900000
v 0.500000 0.900000 -3.000000
v 0.247487 1.147487 -1.900000
v 0.353553 1.253553 -3.000000
v 0.000000 1.250000 -1.900000
v 0.000000 1.400000 -3.000000
v -0.247487 1.147487 -1.900000
v -0.353553 1.253553 -3.000000
v -0.350000 0.900000 -1.900000
v -0.500000 0.900000 -3.000000
v -0.247487 0.652513 -1.900000
v -0.353553 0.546447 -3.000000
vn -1.0000 -0.0000 -0.0000
vn -0.0000 -0.3363 -0.9417
vn 1.0000 -0.0000 -0.0000
vn -0.0000 -0.7809 0.6247
vn -0.0000 -1.0000 -0.0000
vn -0.0000 0.9806 0.1961
vn -0.0000 -0.3827 -0.9239
vn -0.0000 -0.3827 0.9239
vn -0.0000 0.9239 -0.3827
vn -0.0000 -0.9239 -0.3827
vn -0.0000 0.3827 0.9239
vn -0.0000 -0.9239 0.3827
vn -0.0000 0.3827 -0.9239
vn -0.0000 0.9239 0.3827
vn 0.3797 -0.9166 0.1250
vn 0.9166 -0.3797 0.1250
vn 0.9166 0.3797 0.1250
vn 0.3797 0.9166 0.1250
vn -0.3797 0.9166 0.1250
vn -0.9166 0.3797 0.1250
vn -0.0000 -0.0000 -1.0000
vn -0.9166 -0.3797 0.1250
vn -0.3797 -0.9166 0.1250
vn -0.0000 -0.0000 1.0000
vt 0.462500 0.015158
vt 0.537500 0.090158
vt 0.462500 0.090158
vt 0.462500 0.165158
vt 0.537500 0.165158
vt 0.462500 0.240158
vt 0.537500 0.240158
vt 0.462500 0.315158
vt 0.387500 0.240158
vt 0.387500 0.165158
vt 0.612500 0.165158
vt 0.991043 0.306256
vt 0.953543 0.156256
vt 0.991043 0.156256
vt 0.321875 0.309375
vt 0.284375 0.159375
vt 0.321875 0.159375
vt 0.284375 0.309375
vt 0.246875 0.159375
vt 0.953543 0.306256
vt 0.916043 0.156256
vt 0.246875 0.309375
vt 0.209375 0.159375
vt 0.878543 0.306256
vt 0.878543 0.156256
vt 0.841043 0.156256
vt 0.209375 0.309375
vt 0.171875 0.159375
vt 0.841043 0.306256
vt 0.803543 0.156256
vt 0.171875 0.309375
vt 0.134375 0.159375
vt 0.766043 0.306256
vt 0.766043 0.156256
vt 0.693625 0.078125
vt 0.765625 0.006125
vt 0.837625 0.078125
vt 0.728543 0.156256
vt 0.691043 0.306256
vt 0.691043 0.156256
vt 0.966955 0.030344
vt 0.865131 0.030344
vt 0.865131 0.132168
vt 0.134375 0.309375
vt 0.096875 0.159375
vt 0.193897 0.031895
vt 0.193897 0.133718
vt 0.295720 0.133718
vt 0.096875 0.309375
vt 0.059375 0.159375
vt 0.021875 0.309375
vt 0.021875 0.159375
vt 0.166808 0.082806
vt 0.094808 0.154806
vt 0.022808 0.082806
vt 0.987943 0.991443
vt 0.950443 0.841443
vt 0.987943 0.841443
vt 0.311642 0.989397
vt 0.274142 0.839397
vt 0.311642 0.839397
vt 0.274142 0.989397
vt 0.236642 0.839397
vt 0.950443 0.991443
vt 0.912943 0.841443
vt 0.236642 0.989397
vt 0.199142 0.839397
vt 0.912943 0.991443
vt 0.875443 0.841443
vt 0.875443 0.991443
vt 0.837943 0.841443
vt 0.199142 0.989397
vt 0.161642 0.839397
vt 0.837943 0.991443
vt 0.800443 0.841443
vt 0.161642 0.989397
vt 0.124142 0.839397
vt 0.800443 0.991443
vt 0.762943 0.841443
vt 0.690943 0.766443
vt 0.762943 0.694443
vt 0.834943 0.766443
vt 0.725443 0.991443
vt 0.725443 0.841443
vt 0.687943 0.841443
vt 0.963854 0.715531
vt 0.862031 0.715531
vt 0.862031 0.817354
vt 0.124142 0.989397
vt 0.086642 0.839397
vt 0.185731 0.713485
vt 0.185731 0.815309
vt 0.287554 0.815309
vt 0.086642 0.989397
vt 0.049142 0.839397
vt 0.049142 0.989397
vt 0.011642 0.839397
vt 0.158642 0.764397
vt 0.086642 0.836397
vt 0.014642 0.764397
vt 0.663087 0.983291
vt 0.625587 0.833291
vt 0.663087 0.833291
vt 0.625587 0.983291
vt 0.588087 0.833291
vt 0.550588 0.983291
vt 0.550588 0.833291
vt 0.513088 0.833291
vt 0.475587 0.983291
vt 0.475587 0.833291
vt 0.438087 0.833291
vt 0.518097 0.754280
vt 0.590097 0.682280
vt 0.662097 0.754280
vt 0.438087 0.983291
vt 0.400587 0.833291
vt 0.363087 0.983291
vt 0.363087 0.833291
vt 0.483471 0.698627
vt 0.381647 0.698627
vt 0.381647 0.800451
vt 0.537500 0.015158
vt 0.537500 0.315158
vt 0.612500 0.240158
vt 0.916043 0.306256
vt 0.803543 0.306256
vt 0.816537 0.129037
vt 0.765625 0.150125
vt 0.714713 0.129037
vt 0.714713 0.027213
vt 0.816537 0.027213
vt 0.728543 0.306256
vt 0.916043 0.153256
vt 0.966955 0.132168
vt 0.988043 0.081256
vt 0.916043 0.009256
vt 0.844043 0.081256
vt 0.316808 0.082806
vt 0.295720 0.031895
vt 0.244808 0.010806
vt 0.172808 0.082806
vt 0.244808 0.154806
vt 0.059375 0.309375
vt 0.043897 0.031895
vt 0.094808 0.010806
vt 0.145720 0.031895
vt 0.145720 0.133718
vt 0.043897 0.133718
vt 0.762943 0.991443
vt 0.813854 0.817354
vt 0.762943 0.838443
vt 0.712031 0.817354
vt 0.712031 0.715531
vt 0.813854 0.715531
vt 0.687943 0.991443
vt 0.912943 0.838443
vt 0.963854 0.817354
vt 0.984943 0.766443
vt 0.912943 0.694443
vt 0.840943 0.766443
vt 0.308642 0.764397
vt 0.287554 0.713485
vt 0.236642 0.692397
vt 0.164642 0.764397
vt 0.236642 0.836397
vt 0.011642 0.989397
vt 0.035731 0.713485
vt 0.086642 0.692397
vt 0.137554 0.713485
vt 0.137554 0.815309
vt 0.035731 0.815309
vt 0.588087 0.983291
vt 0.513088 0.983291
vt 0.641009 0.805192
vt 0.590097 0.826280
vt 0.539185 0.805192
vt 0.539185 0.703368
vt 0.641009 0.703368
vt 0.400587 0.983291
vt 0.432559 0.821539
vt 0.483471 0.800451
vt 0.504559 0.749539
vt 0.432559 0.677539
vt 0.360559 0.749539
s 0
usemtl Material.001
f 1/1/1 4/2/1 3/3/1
f 4/2/2 7/4/2 3/3/2
f 8/5/3 5/6/3 7/4/3
f 6/7/4 1/8/4 5/6/4
f 7/4/5 1/9/5 3/10/5
f 4/11/6 6/7/6 8/5/6
f 10/12/7 11/13/7 9/14/7
f 34/15/8 35/16/8 33/17/8
f 28/18/9 29/19/9 27/16/9
f 12/20/10 13/21/10 11/13/10
f 32/22/11 33/23/11 31/19/11
f 13/21/12 16/24/12 15/25/12
f 16/24/8 17/26/8 15/25/8
f 26/27/13 27/28/13 25/23/13
f 18/29/11 19/30/11 17/26/11
f 30/31/14 31/32/14 29/28/14
f 19/30/14 22/33/14 21/34/14
f 22/35/3 18/36/3 14/37/3
f 22/33/9 23/38/9 21/34/9
f 23/38/13 10/39/13 9/40/13
f 15/41/1 19/42/1 23/43/1
f 36/44/12 37/45/12 35/32/12
f 35/46/3 39/47/3 27/48/3
f 38/49/10 39/50/10 37/45/10
f 39/50/7 26/51/7 25/52/7
f 30/53/1 26/54/1 38/55/1
f 42/56/13 43/57/13 41/58/13
f 66/59/11 67/60/11 65/61/11
f 60/62/10 61/63/10 59/60/10
f 44/64/9 45/65/9 43/57/9
f 64/66/8 65/67/8 63/63/8
f 46/68/14 47/69/14 45/65/14
f 48/70/11 49/71/11 47/69/11
f 58/72/7 59/73/7 57/67/7
f 50/74/8 51/75/8 49/71/8
f 62/76/12 63/77/12 61/73/12
f 52/78/12 53/79/12 51/75/12
f 54/80/1 50/81/1 46/82/1
f 53/79/10 56/83/10 55/84/10
f 56/83/7 41/85/7 55/84/7
f 47/86/3 51/87/3 55/88/3
f 68/89/14 69/90/14 67/77/14
f 67/91/1 71/92/1 59/93/1
f 70/94/9 71/95/9 69/90/9
f 72/96/13 57/97/13 71/95/13
f 62/98/3 58/99/3 70/100/3
f 74/101/15 75/102/15 73/103/15
f 76/104/16 77/105/16 75/102/16
f 77/105/17 80/106/17 79/107/17
f 80/106/18 81/108/18 79/107/18
f 81/108/19 84/109/19 83/110/19
f 84/109/20 85/111/20 83/110/20
f 86/112/21 82/113/21 78/114/21
f 86/115/22 87/116/22 85/111/22
f 87/116/23 74/117/23 73/118/23
f 79/119/24 83/120/24 87/121/24
f 1/1/1 2/122/1 4/2/1
f 4/2/2 8/5/2 7/4/2
f 8/5/3 6/7/3 5/6/3
f 6/7/4 2/123/4 1/8/4
f 7/4/5 5/6/5 1/9/5
f 4/11/6 2/124/6 6/7/6
f 10/12/7 12/20/7 11/13/7
f 34/15/8 36/18/8 35/16/8
f 28/18/9 30/22/9 29/19/9
f 12/20/10 14/125/10 13/21/10
f 32/22/11 34/27/11 33/23/11
f 13/21/12 14/125/12 16/24/12
f 16/24/8 18/29/8 17/26/8
f 26/27/13 28/31/13 27/28/13
f 18/29/11 20/126/11 19/30/11
f 30/31/14 32/44/14 31/32/14
f 19/30/14 20/126/14 22/33/14
f 14/37/3 12/127/3 10/128/3
f 10/128/3 24/129/3 22/35/3
f 22/35/3 20/130/3 18/36/3
f 18/36/3 16/131/3 14/37/3
f 14/37/3 10/128/3 22/35/3
f 22/33/9 24/132/9 23/38/9
f 23/38/13 24/132/13 10/39/13
f 23/43/1 9/133/1 11/134/1
f 11/134/1 13/135/1 15/41/1
f 15/41/1 17/136/1 19/42/1
f 19/42/1 21/137/1 23/43/1
f 23/43/1 11/134/1 15/41/1
f 36/44/12 38/49/12 37/45/12
f 27/48/3 29/138/3 31/139/3
f 31/139/3 33/140/3 35/46/3
f 35/46/3 37/141/3 39/47/3
f 39/47/3 25/142/3 27/48/3
f 27/48/3 31/139/3 35/46/3
f 38/49/10 40/143/10 39/50/10
f 39/50/7 40/143/7 26/51/7
f 38/55/1 36/144/1 34/145/1
f 34/145/1 32/146/1 30/53/1
f 30/53/1 28/147/1 26/54/1
f 26/54/1 40/148/1 38/55/1
f 38/55/1 34/145/1 30/53/1
f 42/56/13 44/64/13 43/57/13
f 66/59/11 68/62/11 67/60/11
f 60/62/10 62/66/10 61/63/10
f 44/64/9 46/68/9 45/65/9
f 64/66/8 66/72/8 65/67/8
f 46/68/14 48/70/14 47/69/14
f 48/70/11 50/74/11 49/71/11
f 58/72/7 60/76/7 59/73/7
f 50/74/8 52/78/8 51/75/8
f 62/76/12 64/89/12 63/77/12
f 52/78/12 54/149/12 53/79/12
f 46/82/1 44/150/1 42/151/1
f 42/151/1 56/152/1 54/80/1
f 54/80/1 52/153/1 50/81/1
f 50/81/1 48/154/1 46/82/1
f 46/82/1 42/151/1 54/80/1
f 53/79/10 54/149/10 56/83/10
f 56/83/7 42/155/7 41/85/7
f 55/88/3 41/156/3 43/157/3
f 43/157/3 45/158/3 47/86/3
f 47/86/3 49/159/3 51/87/3
f 51/87/3 53/160/3 55/88/3
f 55/88/3 43/157/3 47/86/3
f 68/89/14 70/94/14 69/90/14
f 59/93/1 61/161/1 63/162/1
f 63/162/1 65/163/1 67/91/1
f 67/91/1 69/164/1 71/92/1
f 71/92/1 57/165/1 59/93/1
f 59/93/1 63/162/1 67/91/1
f 70/94/9 72/96/9 71/95/9
f 72/96/13 58/166/13 57/97/13
f 70/100/3 68/167/3 66/168/3
f 66/168/3 64/169/3 62/98/3
f 62/98/3 60/170/3 58/99/3
f 58/99/3 72/171/3 70/100/3
f 70/100/3 66/168/3 62/98/3
f 74/101/15 76/104/15 75/102/15
f 76/104/16 78/172/16 77/105/16
f 77/105/17 78/172/17 80/106/17
f 80/106/18 82/173/18 81/108/18
f 81/108/19 82/173/19 84/109/19
f 84/109/20 86/115/20 85/111/20
f 78/114/21 76/174/21 74/175/21
f 74/175/21 88/176/21 86/112/21
f 86/112/21 84/177/21 82/113/21
f 82/113/21 80/178/21 78/114/21
f 78/114/21 74/175/21 86/112/21
f 86/115/22 88/179/22 87/116/22
f 87/116/23 88/179/23 74/117/23
f 87/121/24 73/180/24 75/181/24
f 75/181/24 77/182/24 79/119/24
f 79/119/24 81/183/24 83/120/24
f 83/120/24 85/184/24 87/121/24
f 87/121/24 75/181/24 79/119/24
