# Blender 3.6.8
# www.blender.org
mtllib patchy.mtl
o Cube
v -1.000000 0.300000 1.000000
v -1.000000 2.300000 1.000000
v -1.000000 0.300000 -1.000000
v -1.000000 2.300000 -1.000000
v 1.000000 0.300000 1.000000
v 1.000000 2.300000 1.000000
v 1.000000 0.300000 -1.000000
v 1.000000 2.300000 -1.000000
v -1.250000 0.500000 0.200000
v 1.250000 0.500000 0.200000
v -1.250000 0.402455 0.209608
v 1.250000 0.402455 0.209607
v -1.250000 0.308658 0.238060
v 1.250000 0.308658 0.238060
v -1.250000 0.222215 0.284265
v 1.250000 0.222215 0.284265
v -1.250000 0.146446 0.346447
v 1.250000 0.146447 0.346446
v -1.250000 0.084265 0.422215
v 1.250000 0.084265 0.422215
v -1.250000 0.038060 0.508658
v 1.250000 0.038060 0.508658
v -1.250000 0.009607 0.602455
v 1.250000 0.009607 0.602455
v -1.250000 -0.000000 0.700000
v 1.250000 0.000000 0.700000
v -1.250000 0.009607 0.797545
v 1.250000 0.009607 0.797545
v -1.250000 0.038060 0.891342
v 1.250000 0.038060 0.891342
v -1.250000 0.084265 0.977785
v 1.250000 0.084265 0.977785
v -1.250000 0.146446 1.053553
v 1.250000 0.146447 1.053553
v -1.250000 0.222215 1.115735
v 1.250000 0.222215 1.115735
v -1.250000 0.308658 1.161940
v 1.250000 0.308658 1.161940
v -1.250000 0.402455 1.190393
v 1.250000 0.402455 1.190392
v -1.250000 0.500000 1.200000
v 1.250000 0.500000 1.200000
v -1.250000 0.597545 1.190393
v 1.250000 0.597545 1.190392
v -1.250000 0.691342 1.161940
v 1.250000 0.691342 1.161940
v -1.250000 0.777785 1.115735
v 1.250000 0.777785 1.115735
v -1.250000 0.853553 1.053554
v 1.250000 0.853553 1.053553
v -1.250000 0.915735 0.977785
v 1.250000 0.915735 0.977785
v -1.250000 0.961939 0.891342
v 1.250000 0.961940 0.891342
v -1.250000 0.990392 0.797545
v 1.250000 0.990393 0.797545
v -1.250000 1.000000 0.700000
v 1.250000 1.000000 0.700000
v -1.250000 0.990392 0.602455
v 1.250000 0.990393 0.602455
v -1.250000 0.961940 0.508658
v 1.250000 0.961940 0.508658
v -1.250000 0.915735 0.422215
v 1.250000 0.915735 0.422215
v -1.250000 0.853553 0.346447
v 1.250000 0.853553 0.346446
v -1.250000 0.777785 0.284265
v 1.250000 0.777785 0.284265
v -1.250000 0.691342 0.238060
v 1.250000 0.691342 0.238060
v -1.250000 0.597545 0.209608
v 1.250000 0.597545 0.209607
v -1.250000 0.500000 -1.200000
v 1.250000 0.500000 -1.200000
v -1.250000 0.402455 -1.190392
v 1.250000 0.402455 -1.190393
v -1.250000 0.308658 -1.161940
v 1.250000 0.308658 -1.161940
v -1.250000 0.222215 -1.115735
v 1.250000 0.222215 -1.115735
v -1.250000 0.146446 -1.053553
v 1.250000 0.146447 -1.053554
v -1.250000 0.084265 -0.977785
v 1.250000 0.084265 -0.977785
v -1.250000 0.038060 -0.891342
v 1.250000 0.038060 -0.891342
v -1.250000 0.009607 -0.797545
v 1.250000 0.009607 -0.797545
v -1.250000 -0.000000 -0.700000
v 1.250000 0.000000 -0.700000
v -1.250000 0.009607 -0.602455
v 1.250000 0.009607 -0.602455
v -1.250000 0.038060 -0.508658
v 1.250000 0.038060 -0.508658
v -1.250000 0.084265 -0.422215
v 1.250000 0.084265 -0.422215
v -1.250000 0.146446 -0.346446
v 1.250000 0.146447 -0.346447
v -1.250000 0.222215 -0.284265
v 1.250000 0.222215 -0.284265
v -1.250000 0.308658 -0.238060
v 1.250000 0.308658 -0.238060
v -1.250000 0.402455 -0.209607
v 1.250000 0.402455 -0.209608
v -1.250000 0.500000 -0.200000
v 1.250000 0.500000 -0.200000
v -1.250000 0.597545 -0.209607
v 1.250000 0.597545 -0.209608
v -1.250000 0.691342 -0.238060
v 1.250000 0.691342 -0.238060
v -1.250000 0.777785 -0.284265
v 1.250000 0.777785 -0.284265
v -1.250000 0.853553 -0.346446
v 1.250000 0.853553 -0.346447
v -1.250000 0.915735 -0.422215
v 1.250000 0.915735 -0.422215
v -1.250000 0.961939 -0.508658
v 1.250000 0.961940 -0.508658
v -1.250000 0.990392 -0.602455
v 1.250000 0.990393 -0.602455
v -1.250000 1.000000 -0.700000
v 1.250000 1.000000 -0.700000
v -1.250000 0.990392 -0.797545
v 1.250000 0.990393 -0.797545
v -1.250000 0.961940 -0.891342
v 1.250000 0.961940 -0.891342
v -1.250000 0.915735 -0.977785
v 1.250000 0.915735 -0.977785
v -1.250000 0.853553 -1.053553
v 1.250000 0.853553 -1.053553
v -1.250000 0.777785 -1.115735
v 1.250000 0.777785 -1.115735
v -1.250000 0.691342 -1.161940
v 1.250000 0.691342 -1.161940
v -1.250000 0.597545 -1.190392
v 1.250000 0.597545 -1.190393
vn -1.0000 -0.0000 -0.0000
vn -0.0000 -0.0000 -1.0000
vn 1.0000 -0.0000 -0.0000
vn -0.0000 -0.0000 1.0000
vn -0.0000 -1.0000 -0.0000
vn -0.0000 1.0000 -0.0000
vn -0.0000 -0.0980 -0.9952
vn -0.0000 0.7730 0.6344
vn -0.0000 -0.9569 0.2903
vn -0.0000 -0.2903 -0.9569
vn -0.0000 0.6344 0.7730
vn -0.0000 -0.4714 -0.8819
vn -0.0000 -0.6344 -0.7730
vn -0.0000 -0.9952 0.0980
vn -0.0000 -0.7730 -0.6344
vn -0.0000 0.4714 0.8819
vn -0.0000 -0.8819 -0.4714
vn -0.0000 -0.9569 -0.2903
vn -0.0000 -0.9952 -0.0980
vn -0.0000 0.2903 0.9569
vn -0.0000 -0.8819 0.4714
vn -0.0000 0.0980 0.9952
vn -0.0000 -0.7730 0.6344
vn -0.0000 -0.6344 0.7730
vn -0.0000 -0.4714 0.8819
vn -0.0000 -0.0980 0.9952
vn -0.0000 -0.2903 0.9569
vn -0.0000 0.8819 0.4714
vn -0.0000 0.9569 0.2903
vn -0.0000 0.9952 0.0980
vn -0.0000 0.9952 -0.0980
vn -0.0000 0.9569 -0.2903
vn -0.0000 0.8819 -0.4714
vn -0.0000 0.7730 -0.6344
vn -0.0000 0.6344 -0.7730
vn -0.0000 0.4714 -0.8819
vn -0.0000 0.2903 -0.9569
vn -0.0000 0.0980 -0.9952
vt 0.625000 0.000000
vt 0.375000 0.250000
vt 0.375000 0.000000
vt 0.625000 0.250000
vt 0.375000 0.500000
vt 0.625000 0.500000
vt 0.375000 0.750000
vt 0.625000 0.750000
vt 0.375000 1.000000
vt 0.125000 0.750000
vt 0.125000 0.500000
vt 0.875000 0.500000
vt 0.337500 0.341000
vt 0.328125 0.191000
vt 0.337500 0.191000
vt 0.962500 0.341000
vt 0.953125 0.191000
vt 0.962500 0.191000
vt 0.953125 0.341000
vt 0.943750 0.191000
vt 0.328125 0.341000
vt 0.318750 0.191000
vt 0.934375 0.341000
vt 0.934375 0.191000
vt 0.318750 0.341000
vt 0.309375 0.191000
vt 0.309375 0.341000
vt 0.300000 0.191000
vt 0.925000 0.191000
vt 0.300000 0.341000
vt 0.290625 0.191000
vt 0.925000 0.341000
vt 0.915625 0.191000
vt 0.290625 0.341000
vt 0.281250 0.191000
vt 0.281250 0.341000
vt 0.271875 0.191000
vt 0.915625 0.341000
vt 0.906250 0.191000
vt 0.262500 0.341000
vt 0.262500 0.191000
vt 0.906250 0.341000
vt 0.896875 0.191000
vt 0.253125 0.191000
vt 0.253125 0.341000
vt 0.243750 0.191000
vt 0.896875 0.341000
vt 0.887500 0.191000
vt 0.243750 0.341000
vt 0.234375 0.191000
vt 0.878125 0.341000
vt 0.878125 0.191000
vt 0.234375 0.341000
vt 0.225000 0.191000
vt 0.225000 0.341000
vt 0.215625 0.191000
vt 0.868750 0.191000
vt 0.215625 0.341000
vt 0.206250 0.191000
vt 0.868750 0.341000
vt 0.859375 0.191000
vt 0.206250 0.341000
vt 0.196875 0.191000
vt 0.196875 0.341000
vt 0.187500 0.191000
vt 0.859375 0.341000
vt 0.850000 0.191000
vt 0.178125 0.341000
vt 0.178125 0.191000
vt 0.850000 0.341000
vt 0.840625 0.191000
vt 0.168750 0.191000
vt 0.168750 0.341000
vt 0.159375 0.191000
vt 0.840625 0.341000
vt 0.831250 0.191000
vt 0.159375 0.341000
vt 0.150000 0.191000
vt 0.831250 0.341000
vt 0.821875 0.191000
vt 0.150000 0.341000
vt 0.140625 0.191000
vt 0.140625 0.341000
vt 0.131250 0.191000
vt 0.821875 0.341000
vt 0.812500 0.191000
vt 0.131250 0.341000
vt 0.121875 0.191000
vt 0.812500 0.341000
vt 0.803125 0.191000
vt 0.121875 0.341000
vt 0.112500 0.191000
vt 0.103125 0.341000
vt 0.103125 0.191000
vt 0.803125 0.341000
vt 0.793750 0.191000
vt 0.093750 0.191000
vt 0.793750 0.341000
vt 0.784375 0.191000
vt 0.093750 0.341000
vt 0.084375 0.191000
vt 0.084375 0.341000
vt 0.075000 0.191000
vt 0.784375 0.341000
vt 0.775000 0.191000
vt 0.075000 0.341000
vt 0.065625 0.191000
vt 0.775000 0.341000
vt 0.765625 0.191000
vt 0.065625 0.341000
vt 0.056250 0.191000
vt 0.084947 0.049481
vt 0.179019 0.088447
vt 0.140053 0.182519
vt 0.056250 0.341000
vt 0.046875 0.191000
vt 0.046875 0.341000
vt 0.037500 0.191000
vt 0.276850 0.045271
vt 0.192187 0.101841
vt 0.248757 0.186504
vt 0.765625 0.341000
vt 0.756250 0.191000
vt 0.746875 0.341000
vt 0.746875 0.191000
vt 0.737500 0.191000
vt 0.728125 0.341000
vt 0.728125 0.191000
vt 0.718750 0.341000
vt 0.718750 0.191000
vt 0.709375 0.191000
vt 0.709375 0.341000
vt 0.700000 0.191000
vt 0.700000 0.341000
vt 0.690625 0.191000
vt 0.690625 0.341000
vt 0.681250 0.191000
vt 0.816883 0.130046
vt 0.901546 0.186617
vt 0.958117 0.101954
vt 0.681250 0.341000
vt 0.671875 0.191000
vt 0.671875 0.341000
vt 0.662500 0.191000
vt 0.804019 0.143553
vt 0.709947 0.182519
vt 0.670981 0.088447
vt 0.625000 1.000000
vt 0.875000 0.750000
vt 0.943750 0.341000
vt 0.271875 0.341000
vt 0.887500 0.341000
vt 0.187500 0.341000
vt 0.112500 0.341000
vt 0.126547 0.186617
vt 0.112500 0.188000
vt 0.098454 0.186617
vt 0.084947 0.182519
vt 0.072499 0.175866
vt 0.061588 0.166912
vt 0.052634 0.156001
vt 0.045981 0.143553
vt 0.041883 0.130046
vt 0.040500 0.116000
vt 0.041883 0.101954
vt 0.045981 0.088447
vt 0.052634 0.075999
vt 0.061588 0.065088
vt 0.072499 0.056134
vt 0.098454 0.045383
vt 0.112500 0.044000
vt 0.126547 0.045383
vt 0.140053 0.049481
vt 0.152501 0.056134
vt 0.163412 0.065088
vt 0.172366 0.075999
vt 0.183117 0.101954
vt 0.184500 0.116000
vt 0.183117 0.130046
vt 0.179019 0.143553
vt 0.172366 0.156001
vt 0.163412 0.166912
vt 0.152501 0.175866
vt 0.037500 0.341000
vt 0.262804 0.187887
vt 0.276850 0.186504
vt 0.290357 0.182407
vt 0.302805 0.175753
vt 0.313716 0.166799
vt 0.322670 0.155888
vt 0.329323 0.143441
vt 0.333420 0.129934
vt 0.334804 0.115887
vt 0.333420 0.101841
vt 0.329323 0.088334
vt 0.322670 0.075886
vt 0.313716 0.064976
vt 0.302805 0.056022
vt 0.290357 0.049368
vt 0.262804 0.043887
vt 0.248757 0.045271
vt 0.235251 0.049368
vt 0.222803 0.056022
vt 0.211892 0.064976
vt 0.202938 0.075886
vt 0.196285 0.088334
vt 0.190804 0.115887
vt 0.192187 0.129934
vt 0.196285 0.143441
vt 0.202938 0.155888
vt 0.211892 0.166799
vt 0.222803 0.175753
vt 0.235251 0.182407
vt 0.756250 0.341000
vt 0.737500 0.341000
vt 0.954019 0.088447
vt 0.947366 0.075999
vt 0.938412 0.065088
vt 0.927501 0.056134
vt 0.915053 0.049481
vt 0.901546 0.045383
vt 0.887500 0.044000
vt 0.873453 0.045383
vt 0.859947 0.049481
vt 0.847499 0.056134
vt 0.836588 0.065088
vt 0.827634 0.075999
vt 0.820981 0.088447
vt 0.816883 0.101954
vt 0.815500 0.116000
vt 0.820981 0.143553
vt 0.827634 0.156001
vt 0.836588 0.166912
vt 0.847499 0.175866
vt 0.859947 0.182519
vt 0.873453 0.186617
vt 0.887500 0.188000
vt 0.915053 0.182519
vt 0.927501 0.175866
vt 0.938412 0.166912
vt 0.947366 0.156001
vt 0.954019 0.143553
vt 0.958117 0.130046
vt 0.959500 0.116000
vt 0.662500 0.341000
vt 0.677634 0.075999
vt 0.686588 0.065088
vt 0.697499 0.056134
vt 0.709947 0.049481
vt 0.723454 0.045383
vt 0.737500 0.044000
vt 0.751547 0.045383
vt 0.765053 0.049481
vt 0.777501 0.056134
vt 0.788412 0.065088
vt 0.797366 0.075999
vt 0.804019 0.088447
vt 0.808117 0.101954
vt 0.809500 0.116000
vt 0.808117 0.130046
vt 0.797366 0.156001
vt 0.788412 0.166912
vt 0.777501 0.175866
vt 0.765053 0.182519
vt 0.751547 0.186617
vt 0.737500 0.188000
vt 0.723454 0.186617
vt 0.697499 0.175866
vt 0.686588 0.166912
vt 0.677634 0.156001
vt 0.670981 0.143553
vt 0.666883 0.130046
vt 0.665500 0.116000
vt 0.666883 0.101954
s 0
usemtl Material.001
f 2/1/1 3/2/1 1/3/1
f 4/4/2 7/5/2 3/2/2
f 8/6/3 5/7/3 7/5/3
f 6/8/4 1/9/4 5/7/4
f 7/5/5 1/10/5 3/11/5
f 4/12/6 6/8/6 8/6/6
f 10/13/7 11/14/7 9/15/7
f 114/16/8 115/17/8 113/18/8
f 92/19/9 93/20/9 91/17/9
f 12/21/10 13/22/10 11/14/10
f 111/20/11 114/23/11 113/24/11
f 14/25/12 15/26/12 13/22/12
f 16/27/13 17/28/13 15/26/13
f 90/23/14 91/29/14 89/24/14
f 18/30/15 19/31/15 17/28/15
f 110/32/16 111/33/16 109/29/16
f 20/34/17 21/35/17 19/31/17
f 22/36/18 23/37/18 21/35/18
f 88/38/19 89/39/19 87/33/19
f 23/37/19 26/40/19 25/41/19
f 108/42/20 109/43/20 107/39/20
f 26/40/14 27/44/14 25/41/14
f 28/45/9 29/46/9 27/44/9
f 86/47/18 87/48/18 85/43/18
f 30/49/21 31/50/21 29/46/21
f 105/48/22 108/51/22 107/52/22
f 32/53/23 33/54/23 31/50/23
f 34/55/24 35/56/24 33/54/24
f 84/51/17 85/57/17 83/52/17
f 36/58/25 37/59/25 35/56/25
f 104/60/26 105/61/26 103/57/26
f 38/62/27 39/63/27 37/59/27
f 40/64/26 41/65/26 39/63/26
f 82/66/15 83/67/15 81/61/15
f 41/65/22 44/68/22 43/69/22
f 102/70/27 103/71/27 101/67/27
f 44/68/20 45/72/20 43/69/20
f 46/73/16 47/74/16 45/72/16
f 80/75/13 81/76/13 79/71/13
f 48/77/11 49/78/11 47/74/11
f 100/79/25 101/80/25 99/76/25
f 50/81/8 51/82/8 49/78/8
f 52/83/28 53/84/28 51/82/28
f 78/85/12 79/86/12 77/80/12
f 54/87/29 55/88/29 53/84/29
f 98/89/24 99/90/24 97/86/24
f 56/91/30 57/92/30 55/88/30
f 57/92/31 60/93/31 59/94/31
f 76/95/10 77/96/10 75/90/10
f 60/93/32 61/97/32 59/94/32
f 96/98/23 97/99/23 95/96/23
f 62/100/33 63/101/33 61/97/33
f 64/102/34 65/103/34 63/101/34
f 74/104/7 75/105/7 73/99/7
f 66/106/35 67/107/35 65/103/35
f 94/108/21 95/109/21 93/105/21
f 68/110/36 69/111/36 67/107/36
f 46/112/3 30/113/3 14/114/3
f 70/115/37 71/116/37 69/111/37
f 72/117/38 9/118/38 71/116/38
f 39/119/1 55/120/1 71/121/1
f 116/122/28 117/123/28 115/109/28
f 117/123/29 120/124/29 119/125/29
f 120/124/30 121/126/30 119/125/30
f 121/126/31 124/127/31 123/128/31
f 123/128/32 126/129/32 125/130/32
f 126/129/33 127/131/33 125/130/33
f 128/132/34 129/133/34 127/131/34
f 130/134/35 131/135/35 129/133/35
f 132/136/36 133/137/36 131/135/36
f 123/138/1 75/139/1 91/140/1
f 134/141/37 135/142/37 133/137/37
f 136/143/38 73/144/38 135/142/38
f 86/145/3 134/146/3 118/147/3
f 2/1/1 4/4/1 3/2/1
f 4/4/2 8/6/2 7/5/2
f 8/6/3 6/8/3 5/7/3
f 6/8/4 2/148/4 1/9/4
f 7/5/5 5/7/5 1/10/5
f 4/12/6 2/149/6 6/8/6
f 10/13/7 12/21/7 11/14/7
f 114/16/8 116/19/8 115/17/8
f 92/19/9 94/150/9 93/20/9
f 12/21/10 14/25/10 13/22/10
f 111/20/11 112/150/11 114/23/11
f 14/25/12 16/27/12 15/26/12
f 16/27/13 18/30/13 17/28/13
f 90/23/14 92/32/14 91/29/14
f 18/30/15 20/34/15 19/31/15
f 110/32/16 112/38/16 111/33/16
f 20/34/17 22/36/17 21/35/17
f 22/36/18 24/151/18 23/37/18
f 88/38/19 90/42/19 89/39/19
f 23/37/19 24/151/19 26/40/19
f 108/42/20 110/47/20 109/43/20
f 26/40/14 28/45/14 27/44/14
f 28/45/9 30/49/9 29/46/9
f 86/47/18 88/152/18 87/48/18
f 30/49/21 32/53/21 31/50/21
f 105/48/22 106/152/22 108/51/22
f 32/53/23 34/55/23 33/54/23
f 34/55/24 36/58/24 35/56/24
f 84/51/17 86/60/17 85/57/17
f 36/58/25 38/62/25 37/59/25
f 104/60/26 106/66/26 105/61/26
f 38/62/27 40/64/27 39/63/27
f 40/64/26 42/153/26 41/65/26
f 82/66/15 84/70/15 83/67/15
f 41/65/22 42/153/22 44/68/22
f 102/70/27 104/75/27 103/71/27
f 44/68/20 46/73/20 45/72/20
f 46/73/16 48/77/16 47/74/16
f 80/75/13 82/79/13 81/76/13
f 48/77/11 50/81/11 49/78/11
f 100/79/25 102/85/25 101/80/25
f 50/81/8 52/83/8 51/82/8
f 52/83/28 54/87/28 53/84/28
f 78/85/12 80/89/12 79/86/12
f 54/87/29 56/91/29 55/88/29
f 98/89/24 100/95/24 99/90/24
f 56/91/30 58/154/30 57/92/30
f 57/92/31 58/154/31 60/93/31
f 76/95/10 78/98/10 77/96/10
f 60/93/32 62/100/32 61/97/32
f 96/98/23 98/104/23 97/99/23
f 62/100/33 64/102/33 63/101/33
f 64/102/34 66/106/34 65/103/34
f 74/104/7 76/108/7 75/105/7
f 66/106/35 68/110/35 67/107/35
f 94/108/21 96/122/21 95/109/21
f 68/110/36 70/115/36 69/111/36
f 14/114/3 12/155/3 10/156/3
f 10/156/3 72/157/3 70/158/3
f 70/158/3 68/159/3 66/160/3
f 66/160/3 64/161/3 62/162/3
f 62/162/3 60/163/3 58/164/3
f 58/164/3 56/165/3 54/166/3
f 54/166/3 52/167/3 50/168/3
f 50/168/3 48/169/3 46/112/3
f 46/112/3 44/170/3 42/171/3
f 42/171/3 40/172/3 38/173/3
f 38/173/3 36/174/3 34/175/3
f 34/175/3 32/176/3 30/113/3
f 30/113/3 28/177/3 26/178/3
f 26/178/3 24/179/3 22/180/3
f 22/180/3 20/181/3 18/182/3
f 18/182/3 16/183/3 14/114/3
f 14/114/3 10/156/3 70/158/3
f 70/158/3 66/160/3 62/162/3
f 62/162/3 58/164/3 54/166/3
f 54/166/3 50/168/3 46/112/3
f 46/112/3 42/171/3 38/173/3
f 38/173/3 34/175/3 30/113/3
f 30/113/3 26/178/3 22/180/3
f 22/180/3 18/182/3 14/114/3
f 14/114/3 70/158/3 62/162/3
f 62/162/3 54/166/3 46/112/3
f 46/112/3 38/173/3 30/113/3
f 30/113/3 22/180/3 14/114/3
f 14/114/3 62/162/3 46/112/3
f 70/115/37 72/117/37 71/116/37
f 72/117/38 10/184/38 9/118/38
f 71/121/1 9/185/1 11/186/1
f 11/186/1 13/187/1 15/188/1
f 15/188/1 17/189/1 19/190/1
f 19/190/1 21/191/1 23/192/1
f 23/192/1 25/193/1 27/194/1
f 27/194/1 29/195/1 31/196/1
f 31/196/1 33/197/1 35/198/1
f 35/198/1 37/199/1 39/119/1
f 39/119/1 41/200/1 43/201/1
f 43/201/1 45/202/1 47/203/1
f 47/203/1 49/204/1 51/205/1
f 51/205/1 53/206/1 55/120/1
f 55/120/1 57/207/1 59/208/1
f 59/208/1 61/209/1 63/210/1
f 63/210/1 65/211/1 67/212/1
f 67/212/1 69/213/1 71/121/1
f 71/121/1 11/186/1 15/188/1
f 15/188/1 19/190/1 23/192/1
f 23/192/1 27/194/1 31/196/1
f 31/196/1 35/198/1 39/119/1
f 39/119/1 43/201/1 47/203/1
f 47/203/1 51/205/1 55/120/1
f 55/120/1 59/208/1 63/210/1
f 63/210/1 67/212/1 71/121/1
f 71/121/1 15/188/1 23/192/1
f 23/192/1 31/196/1 39/119/1
f 39/119/1 47/203/1 55/120/1
f 55/120/1 63/210/1 71/121/1
f 71/121/1 23/192/1 39/119/1
f 116/122/28 118/214/28 117/123/28
f 117/123/29 118/214/29 120/124/29
f 120/124/30 122/215/30 121/126/30
f 121/126/31 122/215/31 124/127/31
f 123/128/32 124/127/32 126/129/32
f 126/129/33 128/132/33 127/131/33
f 128/132/34 130/134/34 129/133/34
f 130/134/35 132/136/35 131/135/35
f 132/136/36 134/141/36 133/137/36
f 91/140/1 93/216/1 95/217/1
f 95/217/1 97/218/1 99/219/1
f 99/219/1 101/220/1 103/221/1
f 103/221/1 105/222/1 107/223/1
f 107/223/1 109/224/1 111/225/1
f 111/225/1 113/226/1 115/227/1
f 115/227/1 117/228/1 119/229/1
f 119/229/1 121/230/1 123/138/1
f 123/138/1 125/231/1 127/232/1
f 127/232/1 129/233/1 131/234/1
f 131/234/1 133/235/1 135/236/1
f 135/236/1 73/237/1 75/139/1
f 75/139/1 77/238/1 79/239/1
f 79/239/1 81/240/1 83/241/1
f 83/241/1 85/242/1 87/243/1
f 87/243/1 89/244/1 91/140/1
f 91/140/1 95/217/1 99/219/1
f 99/219/1 103/221/1 107/223/1
f 107/223/1 111/225/1 115/227/1
f 115/227/1 119/229/1 123/138/1
f 123/138/1 127/232/1 131/234/1
f 131/234/1 135/236/1 75/139/1
f 75/139/1 79/239/1 83/241/1
f 83/241/1 87/243/1 91/140/1
f 91/140/1 99/219/1 107/223/1
f 107/223/1 115/227/1 123/138/1
f 123/138/1 131/234/1 75/139/1
f 75/139/1 83/241/1 91/140/1
f 91/140/1 107/223/1 123/138/1
f 134/141/37 136/143/37 135/142/37
f 136/143/38 74/245/38 73/144/38
f 118/147/3 116/246/3 114/247/3
f 114/247/3 112/248/3 110/249/3
f 110/249/3 108/250/3 106/251/3
f 106/251/3 104/252/3 102/253/3
f 102/253/3 100/254/3 98/255/3
f 98/255/3 96/256/3 94/257/3
f 94/257/3 92/258/3 90/259/3
f 90/259/3 88/260/3 86/145/3
f 86/145/3 84/261/3 82/262/3
f 82/262/3 80/263/3 78/264/3
f 78/264/3 76/265/3 74/266/3
f 74/266/3 136/267/3 134/146/3
f 134/146/3 132/268/3 130/269/3
f 130/269/3 128/270/3 126/271/3
f 126/271/3 124/272/3 122/273/3
f 122/273/3 120/274/3 118/147/3
f 118/147/3 114/247/3 110/249/3
f 110/249/3 106/251/3 102/253/3
f 102/253/3 98/255/3 94/257/3
f 94/257/3 90/259/3 86/145/3
f 86/145/3 82/262/3 78/264/3
f 78/264/3 74/266/3 134/146/3
f 134/146/3 130/269/3 126/271/3
f 126/271/3 122/273/3 118/147/3
f 118/147/3 110/249/3 102/253/3
f 102/253/3 94/257/3 86/145/3
f 86/145/3 78/264/3 134/146/3
f 134/146/3 126/271/3 118/147/3
f 118/147/3 102/253/3 86/145/3
