# Blender 3.6.8
# www.blender.org
mtllib topspin.mtl
o Cone
v 0.000000 1.500000 -1.500000
v -1.299038 1.500000 -0.750000
v -1.299038 1.500000 0.750000
v 0.000000 1.500000 1.500000
v 1.299038 1.500000 0.750000
v 1.299038 1.500000 -0.750000
v -0.000000 0.000000 -0.000000
v 0.000000 1.700000 -1.350000
v -1.169134 1.700000 -0.675000
v -1.169134 1.700000 0.675000
v 0.000000 1.700000 1.350000
v 1.169134 1.700000 0.675000
v 1.169134 1.700000 -0.675000
vn -0.3780 -0.6547 -0.6547
vn -0.7559 -0.6547 -0.0000
vn -0.3780 -0.6547 0.6547
vn 0.3780 -0.6547 0.6547
vn -0.4193 0.5447 0.7263
vn 0.7559 -0.6547 -0.0000
vn 0.3780 -0.6547 -0.6547
vn -0.0000 1.0000 -0.0000
vn -0.8386 0.5447 -0.0000
vn 0.4193 0.5447 -0.7263
vn -0.4193 0.5447 -0.7263
vn 0.8386 0.5447 -0.0000
vn 0.4193 0.5447 0.7263
vt 0.250000 0.490000
vt 0.250000 0.250000
vt 0.457846 0.370000
vt 0.457846 0.130000
vt 0.250000 0.010000
vt 0.042154 0.130000
vt 0.501132 0.481968
vt 0.605055 0.604468
vt 0.667555 0.541968
vt 0.042154 0.370000
vt 0.957846 0.370000
vt 0.750000 0.010000
vt 0.542154 0.370000
vt 0.605055 0.724468
vt 0.667555 0.786968
vt 0.501132 0.846968
vt 0.397209 0.724468
vt 0.334709 0.786968
vt 0.501132 0.784468
vt 0.397209 0.604468
vt 0.334709 0.541968
vt 0.501132 0.544468
vt 0.750000 0.490000
vt 0.957846 0.130000
vt 0.542154 0.130000
s 0
usemtl Material.001
f 1/1/1 7/2/1 2/3/1
f 2/3/2 7/2/2 3/4/2
f 3/4/3 7/2/3 4/5/3
f 4/5/4 7/2/4 5/6/4
f 4/7/5 10/8/5 3/9/5
f 5/6/6 7/2/6 6/10/6
f 6/10/7 7/2/7 1/1/7
f 9/11/8 11/12/8 13/13/8
f 3/9/9 9/14/9 2/15/9
f 1/16/10 13/17/10 6/18/10
f 2/15/11 8/19/11 1/16/11
f 6/18/12 12/20/12 5/21/12
f 5/21/13 11/22/13 4/7/13
f 4/7/5 11/22/5 10/8/5
f 13/13/8 8/23/8 9/11/8
f 9/11/8 10/24/8 11/12/8
f 11/12/8 12/25/8 13/13/8
f 3/9/9 10/8/9 9/14/9
f 1/16/10 8/19/10 13/17/10
f 2/15/11 9/14/11 8/19/11
f 6/18/12 13/17/12 12/20/12
f 5/21/13 12/20/13 11/22/13
