# Blender 3.6.8
# www.blender.org
mtllib uro.mtl
o Cylinder
v -0.000000 1.400000 -1.100000
v -0.000000 1.700000 -1.400000
v 0.550000 1.400000 -0.952628
v 0.700000 1.700000 -1.212435
v 0.952628 1.400000 -0.550000
v 1.212435 1.700000 -0.700000
v 1.100000 1.400000 -0.000000
v 1.400000 1.700000 -0.000000
v 0.952628 1.400000 0.550000
v 1.212435 1.700000 0.700000
v 0.550000 1.400000 0.952628
v 0.700000 1.700000 1.212435
v -0.000000 1.400000 1.100000
v -0.000000 1.700000 1.400000
v -0.550000 1.400000 0.952628
v -0.700000 1.700000 1.212435
v -0.952628 1.400000 0.550000
v -1.212435 1.700000 0.700000
v -1.100000 1.400000 -0.000000
v -1.400000 1.700000 -0.000000
v -0.952628 1.400000 -0.550000
v -1.212435 1.700000 -0.700000
v -0.550000 1.400000 -0.952628
v -0.700000 1.700000 -1.212435
v 0.000000 2.000000 -1.000000
v 0.500000 2.000000 -0.866025
v 0.866025 2.000000 -0.500000
v 1.000000 2.000000 0.000000
v 0.866025 2.000000 0.500000
v 0.500000 2.000000 0.866025
v 0.000000 2.000000 1.000000
v -0.500000 2.000000 0.866025
v -0.866025 2.000000 0.500000
v -1.000000 2.000000 0.000000
v -0.866025 2.000000 -0.500000
v -0.500000 2.000000 -0.866025
v 0.000000 2.800000 -1.000000
v 0.500000 2.800000 -0.866025
v 0.866025 2.800000 -0.500000
v 1.000000 2.800000 0.000000
v 0.866025 2.800000 0.500000
v 0.500000 2.800000 0.866025
v 0.000000 2.800000 1.000000
v -0.500000 2.800000 0.866025
v -0.866025 2.800000 0.500000
v -1.000000 2.800000 0.000000
v -0.866025 2.800000 -0.500000
v -0.500000 2.800000 -0.866025
v -0.000000 3.000000 -0.800000
v 0.400000 3.000000 -0.692820
v 0.692820 3.000000 -0.400000
v 0.800000 3.000000 0.000000
v 0.692820 3.000000 0.400000
v 0.400000 3.000000 0.692820
v -0.000000 3.000000 0.800000
v -0.400000 3.000000 0.692820
v -0.692820 3.000000 0.400000
v -0.800000 3.000000 0.000000
v -0.692820 3.000000 -0.400000
v -0.400000 3.000000 -0.692820
v -0.000000 1.240000 0.000000
v -0.172003 1.157168 0.000000
v -0.214484 0.971045 0.000000
v -0.095454 0.821787 0.000000
v 0.095454 0.821787 0.000000
v 0.214484 0.971045 0.000000
v 0.172003 1.157168 0.000000
v 0.000000 1.121591 -0.364427
v -0.172003 1.054578 -0.315739
v -0.214484 0.904002 -0.206339
v -0.095454 0.783249 -0.118607
v 0.095454 0.783249 -0.118607
v 0.214484 0.904002 -0.206339
v 0.172003 1.054578 -0.315739
v 0.000000 0.811591 -0.589655
v -0.172003 0.785994 -0.510877
v -0.214484 0.728479 -0.333864
v -0.095454 0.682356 -0.191911
v 0.095454 0.682356 -0.191911
v 0.214484 0.728479 -0.333864
v 0.172003 0.785994 -0.510877
v -0.000000 0.428410 -0.589655
v -0.172003 0.454006 -0.510877
v -0.214484 0.511521 -0.333864
v -0.095454 0.557645 -0.191911
v 0.095454 0.557645 -0.191911
v 0.214484 0.511521 -0.333864
v 0.172003 0.454006 -0.510877
v -0.000000 0.118409 -0.364427
v -0.172003 0.185422 -0.315739
v -0.214484 0.335998 -0.206339
v -0.095454 0.456751 -0.118607
v 0.095454 0.456751 -0.118607
v 0.214484 0.335998 -0.206339
v 0.172003 0.185422 -0.315739
v -0.000000 0.000000 -0.000000
v -0.172003 0.082832 -0.000000
v -0.214484 0.268955 -0.000000
v -0.095455 0.418213 -0.000000
v 0.095454 0.418213 0.000000
v 0.214484 0.268955 0.000000
v 0.172003 0.082832 -0.000000
v -0.000000 0.118409 0.364427
v -0.172003 0.185422 0.315739
v -0.214484 0.335998 0.206339
v -0.095455 0.456751 0.118607
v 0.095454 0.456751 0.118607
v 0.214484 0.335998 0.206339
v 0.172003 0.185422 0.315739
v -0.000000 0.428409 0.589655
v -0.172003 0.454006 0.510877
v -0.214484 0.511521 0.333864
v -0.095455 0.557644 0.191911
v 0.095454 0.557644 0.191911
v 0.214484 0.511521 0.333864
v 0.172003 0.454006 0.510877
v -0.000000 0.811591 0.589655
v -0.172003 0.785994 0.510877
v -0.214484 0.728479 0.333864
v -0.095455 0.682356 0.191911
v 0.095454 0.682356 0.191911
v 0.214484 0.728479 0.333864
v 0.172003 0.785994 0.510877
v -0.000000 1.121590 0.364427
v -0.172003 1.054578 0.315740
v -0.214484 0.904002 0.206340
v -0.095455 0.783249 0.118607
v 0.095454 0.783249 0.118607
v 0.214484 0.904002 0.206340
v 0.172003 1.054578 0.315740
vn 0.1862 -0.6947 -0.6947
vn 0.5086 -0.6947 -0.5086
vn 0.6947 -0.6947 -0.1862
vn 0.6947 -0.6947 0.1862
vn 0.5086 -0.6947 0.5086
vn 0.1862 -0.6947 0.6947
vn -0.1862 -0.6947 0.6947
vn -0.5086 -0.6947 0.5086
vn -0.6947 -0.6947 0.1862
vn -0.6947 -0.6947 -0.1862
vn -0.4337 0.7899 0.4337
vn -0.5086 -0.6947 -0.5086
vn -0.1862 -0.6947 -0.6947
vn -0.0000 -1.0000 -0.0000
vn 0.7071 -0.0000 0.7071
vn -0.1587 0.7899 0.5924
vn 0.1587 0.7899 0.5924
vn 0.4337 0.7899 0.4337
vn 0.5924 0.7899 0.1587
vn -0.1587 0.7899 -0.5924
vn 0.1587 0.7899 -0.5924
vn 0.5924 0.7899 -0.1587
vn -0.4337 0.7899 -0.4337
vn 0.4337 0.7899 -0.4337
vn -0.5924 0.7899 -0.1587
vn -0.5924 0.7899 0.1587
vn -0.5086 0.6947 0.5086
vn -0.2588 -0.0000 -0.9659
vn 0.7071 -0.0000 -0.7071
vn -0.9659 -0.0000 0.2588
vn 0.2588 -0.0000 0.9659
vn 0.9659 -0.0000 -0.2588
vn -0.9659 -0.0000 -0.2588
vn -0.2588 -0.0000 0.9659
vn 0.9659 -0.0000 0.2588
vn -0.7071 -0.0000 -0.7071
vn 0.2588 -0.0000 -0.9659
vn -0.7071 -0.0000 0.7071
vn -0.0000 1.0000 -0.0000
vn 0.5086 0.6947 0.5086
vn -0.1862 0.6947 -0.6947
vn 0.5086 0.6947 -0.5086
vn -0.6947 0.6947 0.1862
vn 0.1862 0.6947 0.6947
vn 0.6947 0.6947 -0.1862
vn -0.6947 0.6947 -0.1862
vn -0.1862 0.6947 0.6947
vn 0.6947 0.6947 0.1862
vn -0.5086 0.6947 -0.5086
vn 0.1862 0.6947 -0.6947
vn -0.4164 0.8647 -0.2810
vn -0.9724 0.2219 -0.0721
vn -0.7663 -0.6111 0.1986
vn -0.0000 -0.9511 0.3090
vn 0.7663 -0.6111 0.1986
vn 0.9724 0.2219 -0.0721
vn 0.4164 0.8647 -0.2810
vn -0.4164 0.5344 -0.7355
vn -0.9724 0.1372 -0.1888
vn -0.7663 -0.3777 0.5198
vn -0.0000 -0.5878 0.8090
vn 0.7663 -0.3777 0.5198
vn 0.9724 0.1372 -0.1888
vn 0.4164 0.5344 -0.7355
vn -0.4164 -0.0000 -0.9092
vn -0.9724 -0.0000 -0.2334
vn -0.7663 -0.0000 0.6425
vn -0.0000 -0.0000 1.0000
vn 0.7663 -0.0000 0.6425
vn 0.9724 -0.0000 -0.2334
vn 0.4164 -0.0000 -0.9092
vn -0.4164 -0.5344 -0.7355
vn -0.9724 -0.1372 -0.1888
vn -0.7663 0.3777 0.5198
vn -0.0000 0.5878 0.8090
vn 0.7663 0.3777 0.5198
vn 0.9724 -0.1372 -0.1888
vn 0.4164 -0.5344 -0.7355
vn -0.4164 -0.8647 -0.2810
vn -0.9724 -0.2219 -0.0721
vn -0.7663 0.6111 0.1986
vn -0.0000 0.9511 0.3090
vn 0.7663 0.6111 0.1986
vn 0.9724 -0.2219 -0.0721
vn 0.4164 -0.8647 -0.2810
vn -0.4164 -0.8647 0.2810
vn -0.9724 -0.2219 0.0721
vn -0.7663 0.6111 -0.1986
vn -0.0000 0.9511 -0.3090
vn 0.7663 0.6111 -0.1986
vn 0.9724 -0.2219 0.0721
vn 0.4164 -0.8647 0.2810
vn -0.4164 -0.5344 0.7355
vn -0.9724 -0.1372 0.1888
vn -0.7663 0.3777 -0.5198
vn -0.0000 0.5878 -0.8090
vn 0.7663 0.3777 -0.5198
vn 0.9724 -0.1372 0.1888
vn 0.4164 -0.5344 0.7355
vn -0.4164 -0.0000 0.9092
vn -0.9724 -0.0000 0.2334
vn -0.7663 -0.0000 -0.6425
vn -0.0000 -0.0000 -1.0000
vn 0.7663 -0.0000 -0.6425
vn 0.9724 -0.0000 0.2334
vn 0.4164 -0.0000 0.9092
vn -0.4164 0.5344 0.7355
vn -0.9724 0.1372 0.1888
vn -0.7663 -0.3777 -0.5198
vn -0.0000 -0.5878 -0.8090
vn 0.7663 -0.3777 -0.5198
vn 0.9724 0.1372 0.1888
vn 0.4164 0.5344 0.7355
vn -0.4164 0.8647 0.2810
vn -0.9724 0.2219 0.0721
vn -0.7663 -0.6111 -0.1986
vn -0.0000 -0.9511 -0.3090
vn 0.7663 -0.6111 -0.1986
vn 0.9724 0.2219 0.0721
vn 0.4164 0.8647 0.2810
vt 1.000000 0.671875
vt 0.916667 0.562500
vt 1.000000 0.562500
vt 0.916667 0.671875
vt 0.833333 0.562500
vt 0.833333 0.671875
vt 0.750000 0.562500
vt 0.750000 0.671875
vt 0.666667 0.562500
vt 0.666667 0.671875
vt 0.583333 0.562500
vt 0.583333 0.671875
vt 0.500000 0.562500
vt 0.500000 0.671875
vt 0.416667 0.562500
vt 0.416667 0.671875
vt 0.333333 0.562500
vt 0.333333 0.671875
vt 0.250000 0.562500
vt 0.250000 0.671875
vt 0.166667 0.562500
vt 0.416667 0.781250
vt 0.333333 0.781250
vt 0.166667 0.671875
vt 0.083333 0.562500
vt 0.083333 0.671875
vt 0.000000 0.562500
vt 0.995000 0.125000
vt 0.815000 0.021077
vt 0.815000 0.228923
vt 0.666667 0.781250
vt 0.583333 0.890625
vt 0.583333 0.781250
vt 0.500000 0.781250
vt 0.750000 0.781250
vt 0.000000 0.781250
vt 0.000000 0.671875
vt 1.000000 0.781250
vt 0.916667 0.781250
vt 0.166667 0.781250
vt 0.083333 0.781250
vt 0.833333 0.781250
vt 0.250000 0.781250
vt 0.416667 0.890625
vt 0.333333 1.000000
vt 0.333333 0.890625
vt 0.000000 0.890625
vt 0.833333 0.890625
vt 0.250000 0.890625
vt 0.500000 0.890625
vt 0.750000 0.890625
vt 0.166667 0.890625
vt 0.666667 0.890625
vt 0.083333 0.890625
vt 0.916667 0.890625
vt 0.599202 0.356875
vt 0.703125 0.176875
vt 0.807048 0.356875
vt 0.666667 1.000000
vt 0.583333 1.000000
vt 0.000000 1.000000
vt 0.833333 1.000000
vt 0.250000 1.000000
vt 0.500000 1.000000
vt 0.750000 1.000000
vt 0.166667 1.000000
vt 0.416667 1.000000
vt 0.083333 1.000000
vt 1.000000 0.890625
vt 0.916667 1.000000
vt 0.350000 0.285714
vt 0.300000 0.357143
vt 0.300000 0.285714
vt 0.350000 0.428571
vt 0.300000 0.428571
vt 0.300000 0.500000
vt 0.350000 0.000000
vt 0.300000 0.071429
vt 0.300000 0.000000
vt 0.350000 0.142857
vt 0.300000 0.142857
vt 0.350000 0.214286
vt 0.300000 0.214286
vt 0.400000 0.285714
vt 0.350000 0.357143
vt 0.400000 0.357143
vt 0.400000 0.428571
vt 0.350000 0.500000
vt 0.400000 0.071429
vt 0.350000 0.071429
vt 0.400000 0.142857
vt 0.400000 0.214286
vt 0.450000 0.285714
vt 0.450000 0.357143
vt 0.450000 0.428571
vt 0.400000 0.500000
vt 0.450000 0.000000
vt 0.400000 0.000000
vt 0.450000 0.071429
vt 0.450000 0.214286
vt 0.500000 0.285714
vt 0.500000 0.428571
vt 0.500000 0.500000
vt 0.450000 0.500000
vt 0.500000 0.000000
vt 0.500000 0.071429
vt 0.450000 0.142857
vt 0.500000 0.142857
vt 0.050000 0.285714
vt 0.000000 0.357143
vt 0.000000 0.285714
vt 0.050000 0.357143
vt 0.000000 0.428571
vt 0.050000 0.500000
vt 0.000000 0.500000
vt 0.000000 0.000000
vt 0.050000 0.071429
vt 0.000000 0.071429
vt 0.000000 0.142857
vt 0.050000 0.214286
vt 0.000000 0.214286
vt 0.100000 0.285714
vt 0.100000 0.428571
vt 0.050000 0.428571
vt 0.100000 0.000000
vt 0.050000 0.000000
vt 0.100000 0.142857
vt 0.050000 0.142857
vt 0.100000 0.214286
vt 0.150000 0.285714
vt 0.100000 0.357143
vt 0.150000 0.357143
vt 0.150000 0.500000
vt 0.100000 0.500000
vt 0.150000 0.000000
vt 0.100000 0.071429
vt 0.150000 0.071429
vt 0.150000 0.214286
vt 0.200000 0.285714
vt 0.200000 0.357143
vt 0.150000 0.428571
vt 0.200000 0.428571
vt 0.200000 0.000000
vt 0.200000 0.071429
vt 0.150000 0.142857
vt 0.200000 0.142857
vt 0.200000 0.214286
vt 0.250000 0.285714
vt 0.250000 0.357143
vt 0.250000 0.428571
vt 0.200000 0.500000
vt 0.250000 0.071429
vt 0.250000 0.142857
vt 0.250000 0.214286
vt 0.250000 0.500000
vt 0.250000 0.000000
vt 0.875000 0.245000
vt 0.935000 0.228923
vt 0.978923 0.185000
vt 0.978923 0.065000
vt 0.935000 0.021077
vt 0.875000 0.005000
vt 0.771077 0.065000
vt 0.755000 0.125000
vt 0.771077 0.185000
vt 0.763125 0.400798
vt 0.703125 0.416875
vt 0.643125 0.400798
vt 0.583125 0.296875
vt 0.599202 0.236875
vt 0.643125 0.192952
vt 0.763125 0.192952
vt 0.807048 0.236875
vt 0.823125 0.296875
vt 1.000000 1.000000
vt 0.500000 0.357143
vt 0.500000 0.214286
s 0
usemtl Material.001
f 2/1/1 3/2/1 1/3/1
f 4/4/2 5/5/2 3/2/2
f 6/6/3 7/7/3 5/5/3
f 8/8/4 9/9/4 7/7/4
f 10/10/5 11/11/5 9/9/5
f 12/12/6 13/13/6 11/11/6
f 14/14/7 15/15/7 13/13/7
f 16/16/8 17/17/8 15/15/8
f 18/18/9 19/19/9 17/17/9
f 20/20/10 21/21/10 19/19/10
f 18/18/11 32/22/11 33/23/11
f 22/24/12 23/25/12 21/21/12
f 24/26/13 1/27/13 23/25/13
f 7/28/14 15/29/14 23/30/14
f 29/31/15 42/32/15 30/33/15
f 16/16/16 31/34/16 32/22/16
f 12/12/17 31/34/17 14/14/17
f 12/12/18 29/31/18 30/33/18
f 10/10/19 28/35/19 29/31/19
f 24/26/20 25/36/20 2/37/20
f 4/4/21 25/38/21 26/39/21
f 6/6/22 28/35/22 8/8/22
f 24/26/23 35/40/23 36/41/23
f 6/6/24 26/39/24 27/42/24
f 22/24/25 34/43/25 35/40/25
f 18/18/26 34/43/26 20/20/26
f 44/44/27 57/45/27 45/46/27
f 36/41/28 37/47/28 25/36/28
f 26/39/29 39/48/29 27/42/29
f 33/23/30 46/49/30 34/43/30
f 30/33/31 43/50/31 31/34/31
f 27/42/32 40/51/32 28/35/32
f 34/43/33 47/52/33 35/40/33
f 31/34/34 44/44/34 32/22/34
f 28/35/35 41/53/35 29/31/35
f 35/40/36 48/54/36 36/41/36
f 25/38/37 38/55/37 26/39/37
f 32/22/38 45/46/38 33/23/38
f 59/56/39 55/57/39 51/58/39
f 42/32/40 53/59/40 54/60/40
f 48/54/41 49/61/41 37/47/41
f 38/55/42 51/62/42 39/48/42
f 45/46/43 58/63/43 46/49/43
f 42/32/44 55/64/44 43/50/44
f 39/48/45 52/65/45 40/51/45
f 46/49/46 59/66/46 47/52/46
f 44/44/47 55/64/47 56/67/47
f 40/51/48 53/59/48 41/53/48
f 47/52/49 60/68/49 48/54/49
f 37/69/50 50/70/50 38/55/50
f 68/71/51 62/72/51 61/73/51
f 62/72/52 70/74/52 63/75/52
f 70/74/53 64/76/53 63/75/53
f 71/77/54 65/78/54 64/79/54
f 65/78/55 73/80/55 66/81/55
f 66/81/56 74/82/56 67/83/56
f 67/83/57 68/71/57 61/73/57
f 75/84/58 69/85/58 68/71/58
f 76/86/59 70/74/59 69/85/59
f 77/87/60 71/88/60 70/74/60
f 71/77/61 79/89/61 72/90/61
f 72/90/62 80/91/62 73/80/62
f 80/91/63 74/82/63 73/80/63
f 81/92/64 68/71/64 74/82/64
f 82/93/65 76/86/65 75/84/65
f 83/94/66 77/87/66 76/86/66
f 84/95/67 78/96/67 77/87/67
f 85/97/68 79/89/68 78/98/68
f 86/99/69 80/91/69 79/89/69
f 80/91/70 88/100/70 81/92/70
f 81/92/71 82/93/71 75/84/71
f 89/101/72 83/94/72 82/93/72
f 83/94/73 91/102/73 84/95/73
f 84/95/74 92/103/74 85/104/74
f 92/105/75 86/99/75 85/97/75
f 93/106/76 87/107/76 86/99/76
f 94/108/77 88/100/77 87/107/77
f 88/100/78 89/101/78 82/93/78
f 96/109/79 90/110/79 89/111/79
f 97/112/80 91/113/80 90/110/80
f 91/113/81 99/114/81 92/115/81
f 92/116/82 100/117/82 93/118/82
f 100/117/83 94/119/83 93/118/83
f 94/119/84 102/120/84 95/121/84
f 102/120/85 89/111/85 95/121/85
f 103/122/86 97/112/86 96/109/86
f 97/112/87 105/123/87 98/124/87
f 105/123/88 99/114/88 98/124/88
f 106/125/89 100/117/89 99/126/89
f 100/117/90 108/127/90 101/128/90
f 101/128/91 109/129/91 102/120/91
f 109/129/92 96/109/92 102/120/92
f 110/130/93 104/131/93 103/122/93
f 111/132/94 105/123/94 104/131/94
f 105/123/95 113/133/95 106/134/95
f 113/135/96 107/136/96 106/125/96
f 114/137/97 108/127/97 107/136/97
f 108/127/98 116/138/98 109/129/98
f 116/138/99 103/122/99 109/129/99
f 117/139/100 111/132/100 110/130/100
f 118/140/101 112/141/101 111/132/101
f 119/142/102 113/133/102 112/141/102
f 120/143/103 114/137/103 113/135/103
f 121/144/104 115/145/104 114/137/104
f 122/146/105 116/138/105 115/145/105
f 123/147/106 110/130/106 116/138/106
f 124/148/107 118/140/107 117/139/107
f 125/149/108 119/142/108 118/140/108
f 126/150/109 120/151/109 119/142/109
f 120/143/110 128/152/110 121/144/110
f 128/152/111 122/146/111 121/144/111
f 129/153/112 123/147/112 122/146/112
f 130/154/113 117/139/113 123/147/113
f 61/73/114 125/149/114 124/148/114
f 62/72/115 126/150/115 125/149/115
f 63/75/116 127/155/116 126/150/116
f 64/79/117 128/152/117 127/156/117
f 128/152/118 66/81/118 129/153/118
f 66/81/119 130/154/119 129/153/119
f 67/83/120 124/148/120 130/154/120
f 2/1/1 4/4/1 3/2/1
f 4/4/2 6/6/2 5/5/2
f 6/6/3 8/8/3 7/7/3
f 8/8/4 10/10/4 9/9/4
f 10/10/5 12/12/5 11/11/5
f 12/12/6 14/14/6 13/13/6
f 14/14/7 16/16/7 15/15/7
f 16/16/8 18/18/8 17/17/8
f 18/18/9 20/20/9 19/19/9
f 20/20/10 22/24/10 21/21/10
f 18/18/11 16/16/11 32/22/11
f 22/24/12 24/26/12 23/25/12
f 24/26/13 2/37/13 1/27/13
f 23/30/14 1/157/14 3/158/14
f 3/158/14 5/159/14 7/28/14
f 7/28/14 9/160/14 11/161/14
f 11/161/14 13/162/14 15/29/14
f 15/29/14 17/163/14 19/164/14
f 19/164/14 21/165/14 23/30/14
f 23/30/14 3/158/14 7/28/14
f 7/28/14 11/161/14 15/29/14
f 15/29/14 19/164/14 23/30/14
f 29/31/15 41/53/15 42/32/15
f 16/16/16 14/14/16 31/34/16
f 12/12/17 30/33/17 31/34/17
f 12/12/18 10/10/18 29/31/18
f 10/10/19 8/8/19 28/35/19
f 24/26/20 36/41/20 25/36/20
f 4/4/21 2/1/21 25/38/21
f 6/6/22 27/42/22 28/35/22
f 24/26/23 22/24/23 35/40/23
f 6/6/24 4/4/24 26/39/24
f 22/24/25 20/20/25 34/43/25
f 18/18/26 33/23/26 34/43/26
f 44/44/27 56/67/27 57/45/27
f 36/41/28 48/54/28 37/47/28
f 26/39/29 38/55/29 39/48/29
f 33/23/30 45/46/30 46/49/30
f 30/33/31 42/32/31 43/50/31
f 27/42/32 39/48/32 40/51/32
f 34/43/33 46/49/33 47/52/33
f 31/34/34 43/50/34 44/44/34
f 28/35/35 40/51/35 41/53/35
f 35/40/36 47/52/36 48/54/36
f 25/38/37 37/69/37 38/55/37
f 32/22/38 44/44/38 45/46/38
f 51/58/39 50/166/39 49/167/39
f 49/167/39 60/168/39 59/56/39
f 59/56/39 58/169/39 57/170/39
f 57/170/39 56/171/39 55/57/39
f 55/57/39 54/172/39 53/173/39
f 53/173/39 52/174/39 51/58/39
f 51/58/39 49/167/39 59/56/39
f 59/56/39 57/170/39 55/57/39
f 55/57/39 53/173/39 51/58/39
f 42/32/40 41/53/40 53/59/40
f 48/54/41 60/68/41 49/61/41
f 38/55/42 50/70/42 51/62/42
f 45/46/43 57/45/43 58/63/43
f 42/32/44 54/60/44 55/64/44
f 39/48/45 51/62/45 52/65/45
f 46/49/46 58/63/46 59/66/46
f 44/44/47 43/50/47 55/64/47
f 40/51/48 52/65/48 53/59/48
f 47/52/49 59/66/49 60/68/49
f 37/69/50 49/175/50 50/70/50
f 68/71/51 69/85/51 62/72/51
f 62/72/52 69/85/52 70/74/52
f 70/74/53 71/88/53 64/76/53
f 71/77/54 72/90/54 65/78/54
f 65/78/55 72/90/55 73/80/55
f 66/81/56 73/80/56 74/82/56
f 67/83/57 74/82/57 68/71/57
f 75/84/58 76/86/58 69/85/58
f 76/86/59 77/87/59 70/74/59
f 77/87/60 78/96/60 71/88/60
f 71/77/61 78/98/61 79/89/61
f 72/90/62 79/89/62 80/91/62
f 80/91/63 81/92/63 74/82/63
f 81/92/64 75/84/64 68/71/64
f 82/93/65 83/94/65 76/86/65
f 83/94/66 84/95/66 77/87/66
f 84/95/67 85/104/67 78/96/67
f 85/97/68 86/99/68 79/89/68
f 86/99/69 87/107/69 80/91/69
f 80/91/70 87/107/70 88/100/70
f 81/92/71 88/100/71 82/93/71
f 89/101/72 90/176/72 83/94/72
f 83/94/73 90/176/73 91/102/73
f 84/95/74 91/102/74 92/103/74
f 92/105/75 93/106/75 86/99/75
f 93/106/76 94/108/76 87/107/76
f 94/108/77 95/177/77 88/100/77
f 88/100/78 95/177/78 89/101/78
f 96/109/79 97/112/79 90/110/79
f 97/112/80 98/124/80 91/113/80
f 91/113/81 98/124/81 99/114/81
f 92/116/82 99/126/82 100/117/82
f 100/117/83 101/128/83 94/119/83
f 94/119/84 101/128/84 102/120/84
f 102/120/85 96/109/85 89/111/85
f 103/122/86 104/131/86 97/112/86
f 97/112/87 104/131/87 105/123/87
f 105/123/88 106/134/88 99/114/88
f 106/125/89 107/136/89 100/117/89
f 100/117/90 107/136/90 108/127/90
f 101/128/91 108/127/91 109/129/91
f 109/129/92 103/122/92 96/109/92
f 110/130/93 111/132/93 104/131/93
f 111/132/94 112/141/94 105/123/94
f 105/123/95 112/141/95 113/133/95
f 113/135/96 114/137/96 107/136/96
f 114/137/97 115/145/97 108/127/97
f 108/127/98 115/145/98 116/138/98
f 116/138/99 110/130/99 103/122/99
f 117/139/100 118/140/100 111/132/100
f 118/140/101 119/142/101 112/141/101
f 119/142/102 120/151/102 113/133/102
f 120/143/103 121/144/103 114/137/103
f 121/144/104 122/146/104 115/145/104
f 122/146/105 123/147/105 116/138/105
f 123/147/106 117/139/106 110/130/106
f 124/148/107 125/149/107 118/140/107
f 125/149/108 126/150/108 119/142/108
f 126/150/109 127/155/109 120/151/109
f 120/143/110 127/156/110 128/152/110
f 128/152/111 129/153/111 122/146/111
f 129/153/112 130/154/112 123/147/112
f 130/154/113 124/148/113 117/139/113
f 61/73/114 62/72/114 125/149/114
f 62/72/115 63/75/115 126/150/115
f 63/75/116 64/76/116 127/155/116
f 64/79/117 65/78/117 128/152/117
f 128/152/118 65/78/118 66/81/118
f 66/81/119 67/83/119 130/154/119
f 67/83/120 61/73/120 124/148/120
